<mxfile host="app.diagrams.net" modified="2020-10-29T15:34:14.552Z" agent="5.0 (Windows NT 10.0; Win64; x64) AppleWebKit/537.36 (KHTML, like Gecko) Chrome/86.0.4240.111 Safari/537.36" etag="H3sWcPz1DriRpzfFZLMn" version="13.8.7" type="github">
  <diagram id="C5RBs43oDa-KdzZeNtuy" name="Page-1">
    <mxGraphModel dx="1212" dy="876" grid="1" gridSize="10" guides="1" tooltips="1" connect="1" arrows="1" fold="1" page="1" pageScale="1" pageWidth="827" pageHeight="1169" math="0" shadow="0">
      <root>
        <mxCell id="WIyWlLk6GJQsqaUBKTNV-0" />
        <mxCell id="WIyWlLk6GJQsqaUBKTNV-1" parent="WIyWlLk6GJQsqaUBKTNV-0" />
        <mxCell id="kIbaNGkwv6M-cmsT2C6_-1" value="" style="rounded=1;whiteSpace=wrap;html=1;" parent="WIyWlLk6GJQsqaUBKTNV-1" vertex="1">
          <mxGeometry x="200" y="260" width="170" height="100" as="geometry" />
        </mxCell>
        <mxCell id="kIbaNGkwv6M-cmsT2C6_-2" value="MySql" style="text;html=1;strokeColor=none;fillColor=none;align=center;verticalAlign=middle;whiteSpace=wrap;rounded=0;" parent="WIyWlLk6GJQsqaUBKTNV-1" vertex="1">
          <mxGeometry x="230" y="285" width="110" height="50" as="geometry" />
        </mxCell>
        <mxCell id="kIbaNGkwv6M-cmsT2C6_-3" value="" style="rounded=1;whiteSpace=wrap;html=1;" parent="WIyWlLk6GJQsqaUBKTNV-1" vertex="1">
          <mxGeometry x="150" y="130" width="120" height="70" as="geometry" />
        </mxCell>
        <mxCell id="kIbaNGkwv6M-cmsT2C6_-4" value="user table&lt;br&gt;&lt;ul&gt;&lt;li&gt;Username&lt;/li&gt;&lt;li&gt;Password&lt;/li&gt;&lt;li&gt;Form Key&lt;/li&gt;&lt;/ul&gt;" style="text;html=1;strokeColor=none;fillColor=none;align=left;verticalAlign=middle;whiteSpace=wrap;rounded=0;" parent="WIyWlLk6GJQsqaUBKTNV-1" vertex="1">
          <mxGeometry x="160" y="107.5" width="100" height="127.5" as="geometry" />
        </mxCell>
        <mxCell id="kIbaNGkwv6M-cmsT2C6_-5" value="" style="rounded=1;whiteSpace=wrap;html=1;" parent="WIyWlLk6GJQsqaUBKTNV-1" vertex="1">
          <mxGeometry x="310" y="100" width="140" height="100" as="geometry" />
        </mxCell>
        <mxCell id="kIbaNGkwv6M-cmsT2C6_-6" value="chatroom table&lt;br&gt;&lt;ul&gt;&lt;li&gt;Form Key&lt;/li&gt;&lt;li&gt;Username&lt;/li&gt;&lt;li&gt;Chat Log&lt;/li&gt;&lt;/ul&gt;" style="text;html=1;strokeColor=none;fillColor=none;align=left;verticalAlign=middle;whiteSpace=wrap;rounded=0;rotation=0;" parent="WIyWlLk6GJQsqaUBKTNV-1" vertex="1">
          <mxGeometry x="315" y="107.5" width="130" height="92.5" as="geometry" />
        </mxCell>
        <mxCell id="kIbaNGkwv6M-cmsT2C6_-9" value="" style="endArrow=none;dashed=1;html=1;" parent="WIyWlLk6GJQsqaUBKTNV-1" edge="1">
          <mxGeometry width="50" height="50" relative="1" as="geometry">
            <mxPoint x="310" y="260" as="sourcePoint" />
            <mxPoint x="360" y="200" as="targetPoint" />
          </mxGeometry>
        </mxCell>
        <mxCell id="kIbaNGkwv6M-cmsT2C6_-10" value="" style="endArrow=none;dashed=1;html=1;exitX=0.25;exitY=0;exitDx=0;exitDy=0;entryX=0.333;entryY=1;entryDx=0;entryDy=0;entryPerimeter=0;" parent="WIyWlLk6GJQsqaUBKTNV-1" source="kIbaNGkwv6M-cmsT2C6_-1" target="kIbaNGkwv6M-cmsT2C6_-3" edge="1">
          <mxGeometry width="50" height="50" relative="1" as="geometry">
            <mxPoint x="190" y="260" as="sourcePoint" />
            <mxPoint x="240" y="210" as="targetPoint" />
          </mxGeometry>
        </mxCell>
        <mxCell id="kIbaNGkwv6M-cmsT2C6_-11" value="" style="endArrow=none;dashed=1;html=1;" parent="WIyWlLk6GJQsqaUBKTNV-1" edge="1">
          <mxGeometry width="50" height="50" relative="1" as="geometry">
            <mxPoint x="290" y="430" as="sourcePoint" />
            <mxPoint x="290" y="360" as="targetPoint" />
          </mxGeometry>
        </mxCell>
        <mxCell id="kIbaNGkwv6M-cmsT2C6_-13" value="" style="rounded=1;whiteSpace=wrap;html=1;" parent="WIyWlLk6GJQsqaUBKTNV-1" vertex="1">
          <mxGeometry x="220" y="430" width="100" height="60" as="geometry" />
        </mxCell>
        <mxCell id="kIbaNGkwv6M-cmsT2C6_-14" value="NodeJS" style="text;html=1;strokeColor=none;fillColor=none;align=center;verticalAlign=middle;whiteSpace=wrap;rounded=0;" parent="WIyWlLk6GJQsqaUBKTNV-1" vertex="1">
          <mxGeometry x="220" y="435" width="110" height="50" as="geometry" />
        </mxCell>
        <mxCell id="kIbaNGkwv6M-cmsT2C6_-17" value="" style="endArrow=none;dashed=1;html=1;entryX=0.491;entryY=1.19;entryDx=0;entryDy=0;entryPerimeter=0;" parent="WIyWlLk6GJQsqaUBKTNV-1" target="kIbaNGkwv6M-cmsT2C6_-14" edge="1">
          <mxGeometry width="50" height="50" relative="1" as="geometry">
            <mxPoint x="274" y="600" as="sourcePoint" />
            <mxPoint x="400" y="590" as="targetPoint" />
          </mxGeometry>
        </mxCell>
        <mxCell id="kIbaNGkwv6M-cmsT2C6_-18" value="" style="rounded=1;whiteSpace=wrap;html=1;" parent="WIyWlLk6GJQsqaUBKTNV-1" vertex="1">
          <mxGeometry x="150" y="600" width="240" height="120" as="geometry" />
        </mxCell>
        <mxCell id="kIbaNGkwv6M-cmsT2C6_-19" value="Chat App" style="text;html=1;strokeColor=none;fillColor=none;align=center;verticalAlign=middle;whiteSpace=wrap;rounded=0;" parent="WIyWlLk6GJQsqaUBKTNV-1" vertex="1">
          <mxGeometry x="185" y="610" width="170" height="100" as="geometry" />
        </mxCell>
        <mxCell id="kIbaNGkwv6M-cmsT2C6_-20" value="" style="endArrow=none;dashed=1;html=1;entryX=0.003;entryY=1.07;entryDx=0;entryDy=0;entryPerimeter=0;" parent="WIyWlLk6GJQsqaUBKTNV-1" target="kIbaNGkwv6M-cmsT2C6_-19" edge="1">
          <mxGeometry width="50" height="50" relative="1" as="geometry">
            <mxPoint x="160" y="800" as="sourcePoint" />
            <mxPoint x="400" y="790" as="targetPoint" />
          </mxGeometry>
        </mxCell>
        <mxCell id="kIbaNGkwv6M-cmsT2C6_-21" value="" style="rounded=1;whiteSpace=wrap;html=1;" parent="WIyWlLk6GJQsqaUBKTNV-1" vertex="1">
          <mxGeometry x="30" y="800" width="240" height="120" as="geometry" />
        </mxCell>
        <mxCell id="kIbaNGkwv6M-cmsT2C6_-23" value="" style="rounded=1;whiteSpace=wrap;html=1;" parent="WIyWlLk6GJQsqaUBKTNV-1" vertex="1">
          <mxGeometry x="330" y="990" width="240" height="120" as="geometry" />
        </mxCell>
        <mxCell id="kIbaNGkwv6M-cmsT2C6_-25" value="Login Page&lt;br&gt;&lt;ul&gt;&lt;li&gt;Username&lt;/li&gt;&lt;li&gt;Password&lt;/li&gt;&lt;/ul&gt;" style="text;html=1;strokeColor=none;fillColor=none;align=left;verticalAlign=middle;whiteSpace=wrap;rounded=0;" parent="WIyWlLk6GJQsqaUBKTNV-1" vertex="1">
          <mxGeometry x="65" y="810" width="170" height="100" as="geometry" />
        </mxCell>
        <mxCell id="kIbaNGkwv6M-cmsT2C6_-27" value="" style="endArrow=none;dashed=1;html=1;exitX=1;exitY=0.5;exitDx=0;exitDy=0;" parent="WIyWlLk6GJQsqaUBKTNV-1" source="kIbaNGkwv6M-cmsT2C6_-21" edge="1">
          <mxGeometry width="50" height="50" relative="1" as="geometry">
            <mxPoint x="350" y="810" as="sourcePoint" />
            <mxPoint x="340" y="860" as="targetPoint" />
          </mxGeometry>
        </mxCell>
        <mxCell id="kIbaNGkwv6M-cmsT2C6_-28" value="Chatroom&lt;br&gt;&lt;ul&gt;&lt;li&gt;Log a comment&lt;/li&gt;&lt;li&gt;Search for User&lt;/li&gt;&lt;li&gt;Reply to user?&lt;/li&gt;&lt;/ul&gt;" style="text;html=1;strokeColor=none;fillColor=none;align=left;verticalAlign=middle;whiteSpace=wrap;rounded=0;" parent="WIyWlLk6GJQsqaUBKTNV-1" vertex="1">
          <mxGeometry x="365" y="1000" width="170" height="100" as="geometry" />
        </mxCell>
        <mxCell id="kIbaNGkwv6M-cmsT2C6_-29" value="" style="rounded=1;whiteSpace=wrap;html=1;" parent="WIyWlLk6GJQsqaUBKTNV-1" vertex="1">
          <mxGeometry x="315" y="1240" width="120" height="60" as="geometry" />
        </mxCell>
        <mxCell id="kIbaNGkwv6M-cmsT2C6_-30" value="Front End" style="text;html=1;strokeColor=none;fillColor=none;align=center;verticalAlign=middle;whiteSpace=wrap;rounded=0;" parent="WIyWlLk6GJQsqaUBKTNV-1" vertex="1">
          <mxGeometry x="345" y="1255" width="60" height="40" as="geometry" />
        </mxCell>
        <mxCell id="kIbaNGkwv6M-cmsT2C6_-31" value="" style="rounded=1;whiteSpace=wrap;html=1;" parent="WIyWlLk6GJQsqaUBKTNV-1" vertex="1">
          <mxGeometry x="340" y="810" width="180" height="100" as="geometry" />
        </mxCell>
        <mxCell id="kIbaNGkwv6M-cmsT2C6_-32" value="Choose your own Adventure" style="text;html=1;strokeColor=none;fillColor=none;align=center;verticalAlign=middle;whiteSpace=wrap;rounded=0;" parent="WIyWlLk6GJQsqaUBKTNV-1" vertex="1">
          <mxGeometry x="350" y="810" width="170" height="100" as="geometry" />
        </mxCell>
        <mxCell id="kIbaNGkwv6M-cmsT2C6_-33" value="" style="endArrow=none;dashed=1;html=1;entryX=0.5;entryY=1;entryDx=0;entryDy=0;exitX=0.438;exitY=-0.012;exitDx=0;exitDy=0;exitPerimeter=0;" parent="WIyWlLk6GJQsqaUBKTNV-1" source="kIbaNGkwv6M-cmsT2C6_-23" target="kIbaNGkwv6M-cmsT2C6_-32" edge="1">
          <mxGeometry width="50" height="50" relative="1" as="geometry">
            <mxPoint x="390" y="870" as="sourcePoint" />
            <mxPoint x="440" y="820" as="targetPoint" />
          </mxGeometry>
        </mxCell>
        <mxCell id="kIbaNGkwv6M-cmsT2C6_-36" value="" style="rounded=1;whiteSpace=wrap;html=1;" parent="WIyWlLk6GJQsqaUBKTNV-1" vertex="1">
          <mxGeometry x="625" y="1010" width="120" height="60" as="geometry" />
        </mxCell>
        <mxCell id="kIbaNGkwv6M-cmsT2C6_-37" value="DMs" style="text;html=1;strokeColor=none;fillColor=none;align=center;verticalAlign=middle;whiteSpace=wrap;rounded=0;" parent="WIyWlLk6GJQsqaUBKTNV-1" vertex="1">
          <mxGeometry x="665" y="1030" width="40" height="20" as="geometry" />
        </mxCell>
        <mxCell id="kIbaNGkwv6M-cmsT2C6_-38" value="" style="endArrow=none;dashed=1;html=1;entryX=0;entryY=0.75;entryDx=0;entryDy=0;exitX=1;exitY=0.5;exitDx=0;exitDy=0;" parent="WIyWlLk6GJQsqaUBKTNV-1" source="kIbaNGkwv6M-cmsT2C6_-23" target="kIbaNGkwv6M-cmsT2C6_-36" edge="1">
          <mxGeometry width="50" height="50" relative="1" as="geometry">
            <mxPoint x="390" y="970" as="sourcePoint" />
            <mxPoint x="440" y="920" as="targetPoint" />
          </mxGeometry>
        </mxCell>
        <mxCell id="kIbaNGkwv6M-cmsT2C6_-39" value="" style="rounded=1;whiteSpace=wrap;html=1;" parent="WIyWlLk6GJQsqaUBKTNV-1" vertex="1">
          <mxGeometry x="311" y="1340" width="149" height="112.5" as="geometry" />
        </mxCell>
        <mxCell id="kIbaNGkwv6M-cmsT2C6_-40" value="Login Page&lt;br&gt;&lt;ul&gt;&lt;li&gt;Pop up&lt;/li&gt;&lt;li&gt;Username&lt;/li&gt;&lt;li&gt;Password&lt;/li&gt;&lt;li&gt;Submit Button&lt;/li&gt;&lt;/ul&gt;" style="text;html=1;strokeColor=none;fillColor=none;align=left;verticalAlign=middle;whiteSpace=wrap;rounded=0;" parent="WIyWlLk6GJQsqaUBKTNV-1" vertex="1">
          <mxGeometry x="317" y="1370" width="154" height="75" as="geometry" />
        </mxCell>
        <mxCell id="kIbaNGkwv6M-cmsT2C6_-41" value="" style="rounded=1;whiteSpace=wrap;html=1;" parent="WIyWlLk6GJQsqaUBKTNV-1" vertex="1">
          <mxGeometry x="295" y="1490" width="186" height="170" as="geometry" />
        </mxCell>
        <mxCell id="kIbaNGkwv6M-cmsT2C6_-42" value="Chatroom Options&lt;br&gt;&lt;ul&gt;&lt;li&gt;List out Chatrooms&lt;/li&gt;&lt;li&gt;Allow you to pick which room you want to talk in&lt;/li&gt;&lt;li&gt;Add a chatroom?&lt;/li&gt;&lt;/ul&gt;" style="text;html=1;strokeColor=none;fillColor=none;align=left;verticalAlign=middle;whiteSpace=wrap;rounded=0;" parent="WIyWlLk6GJQsqaUBKTNV-1" vertex="1">
          <mxGeometry x="311" y="1530" width="144" height="80" as="geometry" />
        </mxCell>
        <mxCell id="kIbaNGkwv6M-cmsT2C6_-43" value="" style="rounded=1;whiteSpace=wrap;html=1;" parent="WIyWlLk6GJQsqaUBKTNV-1" vertex="1">
          <mxGeometry x="250" y="1680" width="260" height="160" as="geometry" />
        </mxCell>
        <mxCell id="kIbaNGkwv6M-cmsT2C6_-44" value="Chatroom&lt;br&gt;&lt;ul&gt;&lt;li&gt;Write a chat&lt;/li&gt;&lt;li&gt;Submit chat and have it logged to your Username&lt;/li&gt;&lt;li&gt;Search for individual users&lt;/li&gt;&lt;li&gt;be able to reply to individual chat&lt;/li&gt;&lt;li&gt;have chats disappear from page after x number of chats.&lt;/li&gt;&lt;/ul&gt;" style="text;html=1;strokeColor=none;fillColor=none;align=left;verticalAlign=middle;whiteSpace=wrap;rounded=0;" parent="WIyWlLk6GJQsqaUBKTNV-1" vertex="1">
          <mxGeometry x="260" y="1712.5" width="240" height="95" as="geometry" />
        </mxCell>
        <mxCell id="kIbaNGkwv6M-cmsT2C6_-45" value="" style="rounded=1;whiteSpace=wrap;html=1;" parent="WIyWlLk6GJQsqaUBKTNV-1" vertex="1">
          <mxGeometry x="308" y="1860" width="170" height="140" as="geometry" />
        </mxCell>
        <mxCell id="kIbaNGkwv6M-cmsT2C6_-46" value="DM&lt;br&gt;&lt;div style=&quot;text-align: left&quot;&gt;&lt;ul&gt;&lt;li&gt;&lt;span&gt;Connect to individual User/ Multiple Users&lt;/span&gt;&lt;/li&gt;&lt;li&gt;&lt;span&gt;&lt;div style=&quot;text-align: left&quot;&gt;&lt;span&gt;Write a message that&#39;s only visible by that group&lt;/span&gt;&lt;/div&gt;&lt;/span&gt;&lt;/li&gt;&lt;li&gt;&lt;span&gt;&lt;div style=&quot;text-align: left&quot;&gt;&lt;span&gt;submit message&lt;/span&gt;&lt;/div&gt;&lt;/span&gt;&lt;/li&gt;&lt;/ul&gt;&lt;/div&gt;" style="text;html=1;strokeColor=none;fillColor=none;align=center;verticalAlign=middle;whiteSpace=wrap;rounded=0;" parent="WIyWlLk6GJQsqaUBKTNV-1" vertex="1">
          <mxGeometry x="288" y="1875" width="180" height="105" as="geometry" />
        </mxCell>
      </root>
    </mxGraphModel>
  </diagram>
</mxfile>
